<svg xmlns="http://www.w3.org/2000/svg" width="73" height="24" fill="none"><g fill="#F0501E"><path d="M25.9238 1.2677 13.2432 22.332a.3135.3135 0 0 1-.1131.1076.3085.3085 0 0 1-.3002 0 .3135.3135 0 0 1-.1131-.1076L.0362 1.2677A.297.297 0 0 1 .0433.971.2906.2906 0 0 1 .154.8661.2852.2852 0 0 1 .3018.8325H25.663a.2807.2807 0 0 1 .1484.0326.2862.2862 0 0 1 .1107.1055.2919.2919 0 0 1 .0017.2971ZM21.6657 22.0439 34.3463.9796a.3141.3141 0 0 1 .1131-.1075.3083.3083 0 0 1 .3002 0 .3141.3141 0 0 1 .1131.1075l12.6806 21.0643a.2967.2967 0 0 1-.0071.2967.2904.2904 0 0 1-.1107.1049.2839.2839 0 0 1-.1477.0336H21.9266a.2803.2803 0 0 1-.1485-.0325.2862.2862 0 0 1-.1107-.1055.2918.2918 0 0 1-.0017-.2972ZM72.6308 11.6556c.0009 2.3064-.6718 4.5613-1.9331 6.4795-1.2612 1.9181-3.0543 3.4134-5.1526 4.2967a11.3218 11.3218 0 0 1-6.6351.6654c-2.2279-.4493-4.2745-1.5595-5.8809-3.19-1.6064-1.6306-2.7006-3.7083-3.144-5.9703a11.8271 11.8271 0 0 1 .6526-6.7377c.869-2.1309 2.3409-3.9523 4.2294-5.2338C56.6557.684 58.876 0 61.1474 0a11.3274 11.3274 0 0 1 4.3941.8859 11.469 11.469 0 0 1 3.7256 2.5263 11.668 11.668 0 0 1 2.4894 3.782 11.8109 11.8109 0 0 1 .8743 4.4614Z"/></g></svg>