<svg version="1.1" id="Layer_1" xmlns="http://www.w3.org/2000/svg" xmlns:xlink="http://www.w3.org/1999/xlink" x="0px" y="0px"
	 width="100%" viewBox="0 0 176 176" enable-background="new 0 0 176 176" xml:space="preserve">
<path fill="#000000" opacity="1.000000" stroke="none" 
	d="
M120.603928,58.575191 
	C122.412125,60.723167 122.539337,62.361774 120.221451,63.787479 
	C118.522881,64.832260 116.806534,65.889938 115.273628,67.154617 
	C110.257439,71.293114 106.240463,73.355629 99.730560,67.903351 
	C91.632545,61.120975 79.289291,64.097984 73.186142,72.389023 
	C67.159309,80.576416 68.217552,91.864502 75.649956,98.669800 
	C83.363068,105.732147 95.136971,105.811928 102.805931,98.350853 
	C105.717491,95.518219 107.735275,95.251266 110.744202,97.823250 
	C113.389854,100.084732 116.317352,102.060776 119.293549,103.879524 
	C122.627892,105.917152 122.402046,107.852890 120.071106,110.622787 
	C109.706177,122.939598 91.657127,128.354034 76.067902,122.219818 
	C69.034233,119.452148 63.064770,119.747589 56.557968,122.384064 
	C54.761520,123.111961 52.936485,124.059120 50.501404,123.639519 
	C50.235657,119.702774 52.110046,116.291916 53.367855,112.838356 
	C54.769169,108.990761 54.625618,105.724106 52.794666,101.922859 
	C41.512478,78.499886 54.144436,51.433475 79.372559,45.334179 
	C95.423393,41.453644 109.275909,45.844875 120.603928,58.575191 
z"/>
<path fill="#000000" opacity="1.000000" stroke="none" 
	d="
M82.798691,83.176292 
	C83.620811,80.290535 85.249672,78.830231 87.917381,79.114326 
	C90.044464,79.340836 91.546532,80.615860 92.045372,82.772285 
	C92.496765,84.723595 91.756432,86.343971 90.247261,87.562309 
	C87.193291,90.027740 83.921066,88.268845 82.798691,83.176292 
z"/>
</svg>